<svg width="180" height="124" viewBox="0 0 180 124" fill="none" xmlns="http://www.w3.org/2000/svg">
<path d="M24.514 50.7886H40.5521V57.2571H25.4897C24.8639 55.1544 24.5356 52.978 24.514 50.7886Z" fill="#F48120"/>
<path d="M29.6887 66.1819C28.2949 64.1046 27.1271 61.8911 26.204 59.5774H42.852V66.1734C42.852 66.1734 37.7296 66.1139 29.6887 66.1734" fill="#F48120"/>
<path d="M43.8626 78.1499C43.6127 78.278 43.3346 78.3449 43.0524 78.3449C42.7701 78.3449 42.4921 78.278 42.2422 78.1499C39.2633 76.5295 36.5669 74.4581 34.2536 72.0129C34.1665 71.8854 34.1142 71.7579 34.1491 71.6729C34.1839 71.5879 34.6108 71.5029 35.1161 71.5029H51.764C51.8137 71.5058 51.8619 71.5204 51.9044 71.5456C51.9469 71.5708 51.9825 71.6058 52.008 71.6474C52.008 71.7239 52.008 71.8429 51.9121 71.9704C49.5876 74.4398 46.8694 76.5265 43.8626 78.1499Z" fill="#F48120"/>
<path d="M56.4335 66.2499C56.0415 66.8534 55.632 67.4484 55.2052 68.0349L55.0745 68.2049L54.6737 68.7319C54.6128 68.7914 54.5605 68.8254 54.5169 68.8169C54.4734 68.8084 54.4472 68.7404 54.4385 68.6469V68.1709C54.4385 68.0944 54.4385 68.0094 54.4385 67.9244V60.2149L52.339 59.4499V52.2929L42.129 48.3999H28.4517C28.3558 48.3999 28.3558 48.3999 28.3558 48.3999C28.3558 48.3999 28.3558 48.3404 28.4081 48.3064C30.0322 47.7177 31.6975 47.2433 33.3912 46.8869C36.5625 46.1856 39.8008 45.8124 43.0524 45.7734C46.3141 45.7962 49.5641 46.1552 52.7485 46.8444C55.645 47.3907 58.4313 48.3926 60.9984 49.8109C61.1773 49.9115 61.327 50.0547 61.4337 50.2272C61.5404 50.3996 61.6004 50.5957 61.6082 50.7969C61.6082 55.8289 59.6307 61.3114 56.4509 66.2414" fill="#F48120"/>
<path d="M82.1939 64.686H70.5638V62.51H82.1329C82.4286 62.5021 82.7155 62.6091 82.9303 62.8076C83.1451 63.0061 83.2704 63.2797 83.2785 63.5682C83.2865 63.8568 83.1768 64.1366 82.9734 64.3463C82.77 64.5559 82.4896 64.6781 82.1939 64.686ZM70.5638 58.8295H82.0806C82.3625 58.8295 82.6328 58.9387 82.8321 59.1332C83.0315 59.3277 83.1434 59.5914 83.1434 59.8665C83.1434 60.1415 83.0315 60.4053 82.8321 60.5997C82.6328 60.7942 82.3625 60.9035 82.0806 60.9035H70.5638V58.8295ZM83.8578 61.575C84.292 61.2919 84.6213 60.88 84.7969 60.4001C84.9724 59.9202 84.9848 59.3979 84.8324 58.9105C84.6799 58.4232 84.3706 57.9967 83.9503 57.6943C83.53 57.3919 83.021 57.2296 82.4988 57.2315H68.7692V66.25H82.7078C83.2819 66.2477 83.8384 66.0568 84.2875 65.708C84.7366 65.3591 85.052 64.8728 85.183 64.3275C85.3139 63.7821 85.2526 63.2097 85.009 62.7025C84.7654 62.1954 84.3537 61.7832 83.8404 61.5325" fill="#27282A"/>
<path d="M88.6579 58.8211H99.7914C100.138 58.8211 100.47 58.9554 100.715 59.1945C100.96 59.4337 101.098 59.758 101.098 60.0961C101.098 60.4343 100.96 60.7586 100.715 60.9977C100.47 61.2368 100.138 61.3711 99.7914 61.3711H88.6579V58.8211ZM101.046 66.2501H103.119L100.663 62.8501C101.38 62.7057 102.017 62.3054 102.448 61.7275C102.879 61.1495 103.074 60.4354 102.995 59.7247C102.915 59.014 102.567 58.3577 102.018 57.8841C101.469 57.4105 100.759 57.1536 100.027 57.1636H86.8633V66.2501H88.6579V62.9351H98.624L101.046 66.2501Z" fill="#27282A"/>
<path d="M141.329 58.8211H152.462C152.809 58.8211 153.141 58.9554 153.386 59.1945C153.631 59.4337 153.769 59.758 153.769 60.0961C153.769 60.4343 153.631 60.7586 153.386 60.9977C153.141 61.2368 152.809 61.3711 152.462 61.3711H141.329V58.8211ZM153.717 66.2501H155.79L153.325 62.8501C154.042 62.7057 154.679 62.3054 155.11 61.7275C155.541 61.1495 155.736 60.4354 155.657 59.7247C155.577 59.014 155.229 58.3577 154.68 57.8841C154.131 57.4105 153.421 57.1536 152.689 57.1636H139.534V66.2501H141.329V62.9351H151.295L153.717 66.2501Z" fill="#27282A"/>
<path d="M106.264 60.9546V60.1046C106.264 59.7708 106.398 59.4503 106.638 59.2119C106.877 58.9735 107.203 58.8363 107.545 58.8296H118.8V60.9631L106.264 60.9546ZM107.292 57.2231C106.539 57.2535 105.826 57.565 105.3 58.0932C104.775 58.6215 104.478 59.3262 104.47 60.0621V66.2501H106.264V62.5526H118.8V66.2501H120.595V57.2146L107.292 57.2231Z" fill="#27282A"/>
<path d="M137.8 64.6944H124.323V62.5524H135.126V60.9544H124.323V58.8124H137.8V57.2229H122.511V66.2839H137.8V64.6944Z" fill="#27282A"/>
</svg>
