<svg width="78" height="80" viewBox="0 0 78 80" fill="none" xmlns="http://www.w3.org/2000/svg">
<path d="M32.2814 79.9875C31.8845 79.7078 31.4017 79.7468 30.9595 79.6406C28.1562 78.9647 25.6468 77.4001 23.8061 75.1803C21.9654 72.9606 20.8923 70.2049 20.747 67.325C20.7189 66.75 20.522 66.6625 20.0142 66.664C15.6173 66.6828 11.2199 66.6828 6.822 66.664C3.697 66.6546 1.32825 64.7312 0.82356 61.7203C0.475122 59.6437 1.13606 57.8468 2.722 56.4609C5.75637 53.8046 8.047 50.6406 9.41262 46.8296C10.2914 44.3773 10.7371 41.7909 10.7298 39.1859C10.7298 36.1922 10.7298 33.1989 10.7298 30.2062C10.7501 18.85 18.4001 9.43903 29.5282 7.11871C32.6204 6.47496 35.7251 6.54528 38.8236 7.17809C39.3486 7.28434 39.2923 7.49059 39.1361 7.85934C37.8224 10.9344 37.2343 14.2705 37.4173 17.6093C37.8986 25.9984 41.8017 32.3625 48.9329 36.7562C51.3486 38.2437 54.0001 39.15 56.7907 39.625C57.2861 39.7078 57.4032 39.8797 57.4298 40.3562C57.7782 46.5125 60.2001 51.7078 64.7611 55.8687C65.9611 56.9625 66.997 58.125 67.2611 59.7922C67.8454 63.5297 65.1892 66.6375 61.347 66.6672C57.1048 66.6937 52.8642 66.6672 48.622 66.6672C47.4126 66.6672 47.4126 66.6671 47.3032 67.8875C47.0596 70.5605 46.0135 73.0975 44.3022 75.1654C42.5909 77.2333 40.2945 78.7355 37.7142 79.475C37.0517 79.6609 36.3798 79.8125 35.7111 79.9796L32.2814 79.9875Z" fill="#FBE303"/>
<path d="M62.583 0.0107422C63.4267 0.210742 64.2783 0.387305 65.1158 0.61543C72.558 2.64668 77.7627 9.72793 77.3658 17.2701C76.9439 25.2732 71.3002 31.7498 63.5752 33.0936C54.2783 34.7123 45.4502 28.242 44.1861 18.8873C43.0002 10.1076 48.9596 1.90293 57.6783 0.293555C57.9611 0.241992 58.3033 0.293555 58.5221 0.0154297L62.583 0.0107422Z" fill="#454950"/>
</svg>
